#!OML:ASF E:/inclinewalkrobotboard/Project1/Captureday1/Session1/subject1.ASF
:FULLY-SPECIFIED
:DEGREES
351
root 0 0 0 1.383167937810184 -8.728576617841359 0.9223889758549657
lowerback 1.443342501306555 -1.2625738359100571 -2.9450769917017405
upperback -1.0678736673781324 -1.5565656234661622 2.226549398478405
thorax -1.683251044205528 -0.7577198535034829 3.930368986901195
lowerneck -26.409435317812815 -1.8836156247404088 -7.207670299355874
upperneck 12.007941531956963 -0.7183487824571237 4.570889286646053
head 8.018269596476983 -0.188090300093536 2.621965032554462
rclavicle -6.574642143507481E-15 -1.7555770331056505E-15
rhumerus -31.353224732173178 -1.35711584241007 -80.94494003304982
rradius 30.87599838849593
rwrist 17.755335533389367
rhand -18.44878349817995 9.926914266439763
rfingers 7.125019999999955
rthumb 7.840006879653426 -19.90697293446278
lclavicle -2.2312038418630857E-15 -7.765377130374285E-16
lhumerus -10.708425725607594 8.997115213223811 89.58686046513775
lradius 59.855050412062425
lwrist -5.085507972303426
lhand -33.53730168442286 17.292539455994962
lfingers 7.125020000000008
lthumb -6.727667253936246 46.93079006933583
rfemur 13.151694287348684 7.232552539055039 34.43384347120892
rtibia 32.23084661877088
rfoot -15.704502301531322 -3.6686950901797286
rtoes -5.256951949168256
lfemur -31.253867491645618 -4.270092297551324 -9.479693123463472
ltibia 24.308228144514125
lfoot -4.579977691273531 3.47662632987951
ltoes -1.7661393381316248
352
root 0 0 0 1.38325707380133 -8.74365440184509 0.9200804766722045
lowerback 1.4157066333350532 -1.2609259906963692 -2.9502972944157015
upperback -1.0817652775356554 -1.5546549154506408 2.221685596401988
thorax -1.6817068284278935 -0.7565892016451213 3.929097014762864
lowerneck -26.351187986886284 -1.8792891582115776 -7.2243466131929
upperneck 12.153867719450513 -0.7085466290165079 4.561428463004061
head 8.065717104013917 -0.19159474636452317 2.6250226435028496
rclavicle -7.454788855612662E-15 -1.6446147042119051E-15
rhumerus -31.36383193842772 -1.3758324974868792 -80.9231994419008
rradius 30.859513183524324
rwrist 17.75234468095826
rhand -18.445875707306584 9.93695248263765
rfingers 7.125019999999954
rthumb 7.842625563135535 -19.89924569357347
lclavicle -2.755931537153956E-15 -7.307550489329895E-16
lhumerus -10.321884447119148 9.293263097096553 89.35135263149768
lradius 59.879852223480505
lwrist -5.203070738543689
lhand -33.60480713186721 17.247104475493835
lfingers 7.125020000000008
lthumb -6.791204857222778 46.880710847022215
rfemur 12.119621126876273 5.805250138719877 31.94266646878164
rtibia 41.19829422711456
rfoot -9.767131411555635 -1.5724831941792714
rtoes -4.965112844491566
lfemur -29.204123577759567 -4.539681134338259 -10.700962190910948
ltibia 24.172535483451536
lfoot -3.9002645518194576 2.3869221046825144
ltoes -0.5643425778157045
353
root 0 0 0 1.384487445161022 -8.75729881682665 0.9223468962376821
lowerback 1.3947567934756133 -1.2622113580607055 -2.9554055083180737
upperback -1.0905384947048897 -1.5568923380897162 2.220015964915791
thorax -1.6786749944603887 -0.7572742831897682 3.9305967286866794
lowerneck -26.34766084357592 -1.8786328550389055 -7.2337669401737035
upperneck 12.202792623315027 -0.7024451617975132 4.558477952149099
head 8.0848640476026 -0.1922925027051018 2.627122768401061
rclavicle -7.715155016038934E-15 -1.520278651678723E-15
rhumerus -31.418665123256634 -1.6096490522508722 -80.8833225456707
rradius 30.808315194367466
rwrist 17.76097647499412
rhand -18.40138178108735 9.957453161794266
rfingers 7.125019999999953
rthumb 7.8851661633164 -19.88024181580807
lclavicle -2.950668325148598E-15 -7.364461602654259E-16
lhumerus -9.992280573523367 9.560863461718785 89.17382274240637
lradius 59.91125831486742
lwrist -5.30774384393339
lhand -33.66271425335666 17.207836372565104
lfingers 7.125020000000008
lthumb -6.846425057587586 46.83688336631883
rfemur 4.79799102137113 3.764350540556528 29.300719303296418
rtibia 51.68838296009456
rfoot -1.394223207689203 0.44419760374381223
rtoes 0.157203423817049
lfemur -25.055515051691263 -4.481667099579834 -13.525775486013742
ltibia 26.766415958177717
lfoot -2.4234012250977255 -0.4782399467030669
ltoes 2.30077112282415
354
root 0 0 0 1.3915082192010044 -8.76833941439177 0.9335829235261874
lowerback 1.3913714652621676 -1.2707246255763427 -2.957521508521123
upperback -1.0812338125004235 -1.569308899277578 2.224024957213625
thorax -1.666517987674958 -0.7631457021862235 3.935555633447957
lowerneck -26.462832230935085 -1.8883956624338354 -7.229064825141046
upperneck 12.061288879600387 -0.7089283946448175 4.568557544558979
head 8.050269149774266 -0.1891374475368227 2.626518942851277
rclavicle -7.255677475986059E-15 -1.455824719714656E-15
rhumerus -31.575452269877992 -2.2713385364453558 -80.78696521825535
rradius 30.673980206996543
rwrist 17.821013544581945
rhand -18.26918170857115 9.992804477642895
rfingers 7.1250199999999495
rthumb 8.011763221519596 -19.840869040393684
lclavicle -2.895269122366195E-15 -8.656884754061819E-16
lhumerus -9.901124773651688 9.718063154710372 89.17293460691239
lradius 59.901928010361964
lwrist -5.35902792450185
lhand -33.68489484651346 17.173162829158574
lfingers 7.125020000000009
lthumb -6.867655704112807 46.79983202122949
rfemur -5.184916859438238 2.2287915724201914 26.39033562531266
rtibia 60.79809979691554
rfoot 5.6062756908708575 -0.015184127328227603
rtoes 6.903328284739707
lfemur -20.14985646216785 -3.9416590178646733 -16.81349968902189
ltibia 30.29654164700732
lfoot -0.9648478124705244 -3.4548799469648483
ltoes 5.26270677461507
355
root 0 0 0 1.4099766608028297 -8.765397999683307 0.9574402508006877
lowerback 1.402016278846509 -1.284082721060201 -2.9647616479226415
upperback -1.0561046414620585 -1.5881689586017878 2.235378535882919
thorax -1.6456061113939229 -0.7720849522173002 3.9506832259417677
lowerneck -26.69823665349936 -1.9158377070822294 -7.220831485881463
upperneck 11.649418169144628 -0.7453210450768896 4.625658661239146
head 7.931894710968142 -0.183208817668827 2.633681921258088
rclavicle -6.161639922085011E-15 -1.08109447967021E-15
rhumerus -31.88865969960564 -3.4638867056981137 -80.5861471288759
rradius 30.41230991635216
rwrist 18.00026732347314
rhand -18.018260854147286 10.03207239930895
rfingers 7.125019999999945
rthumb 8.252314839972879 -19.792394366718487
lclavicle -2.78851517871969E-15 -9.397835279140997E-16
lhumerus -10.175376499563626 9.561303634986555 89.36536370129282
lradius 59.85362044410385
lwrist -5.267198026302361
lhand -33.62333784385519 17.203083932219705
lfingers 7.125020000000009
lthumb -6.809272298577774 46.83261021997643
rfemur -13.540687584221892 1.0211930565344067 23.818173388029845
rtibia 67.68533701596168
rfoot 4.7972061704496465 -3.194709708042745
rtoes 10.636656014905697
lfemur -15.765907806889706 -3.0743521512333083 -19.895981599888614
ltibia 32.16482441921323
lfoot -1.687521737148968 -4.491512001413142
ltoes 7.2244042032875235
